PathFileType	4	(X/Y/Z)	Patient4_TMGait_0pt6_02_left_25.trc.trc
DataRate	CameraRate	NumFrames	NumMarkers	Units	OrigDataRate	OrigDataStartFrame	OrigNumFrames
82.352941176471	82.352941176471	5	33	mm	82.352941176471	106	       141
Frame#	Time	Sacral			L.Shoulder			Chest			R.Shoulder			Neck			R.ASIS			L.ASIS			R.Thigh.Superior			R.Thigh.Lateral			R.Thigh.Inferior			R.Patella			L.Thigh.Superior			L.Thigh.Lateral			L.Thigh.Inferior			L.Patella			L.Shank.Superior			L.Shank.Lateral			L.Shank.Inferior			R.Shank.Superior			R.Shank.Lateral			R.Shank.Inferior			R.Heel			R.Midfoot.Superior			R.Midfoot.Lateral			R.Toe			L.Heel			L.Midfoot.Lateral			L.Midfoot.Superior			L.Toe			L.Elbow			L.Wrist			R.Elbow			R.Wrist			
		X1	Y1	Z1	X2	Y2	Z2	X3	Y3	Z3	X4	Y4	Z4	X5	Y5	Z5	X6	Y6	Z6	X7	Y7	Z7	X8	Y8	Z8	X9	Y9	Z9	X10	Y10	Z10	X11	Y11	Z11	X12	Y12	Z12	X13	Y13	Z13	X14	Y14	Z14	X15	Y15	Z15	X16	Y16	Z16	X17	Y17	Z17	X18	Y18	Z18	X19	Y19	Z19	X20	Y20	Z20	X21	Y21	Z21	X22	Y22	Z22	X23	Y23	Z23	X24	Y24	Z24	X25	Y25	Z25	X26	Y26	Z26	X27	Y27	Z27	X28	Y28	Z28	X29	Y29	Z29	X30	Y30	Z30	X31	Y31	Z31	X32	Y32	Z32	X33	Y33	Z33	

106	31.865000000000	856.896117141078	1010.256507462555	500.787752296149	1035.933664625879	1440.782661987451	324.703662248520	1150.513775608139	1360.043755922497	470.920939963716	1088.202668865990	1433.618120448763	652.988215608285	1055.035805905177	1494.138616461668	476.811621767128	1088.021249454450	946.338616784577	603.765622464635	1059.511788738741	961.482795853335	330.391702585447	1112.948165973616	742.354739792206	577.002542429896	1025.685892179266	635.664672271116	635.487927009751	1100.744021961385	582.244294291735	556.701925159573	1095.434029841975	495.413392801239	562.518251160105	1141.488221450811	792.322998561214	343.454729897380	1097.831798476924	663.653738737332	262.014292696592	1211.886471826668	610.018429888533	309.145582641545	1238.753750447912	534.259901582654	296.327407423827	1205.478786114964	457.665869751633	293.097327143551	1101.821723061666	349.193691230896	256.241463517950	1167.880003962077	231.522391952028	302.224725386940	1067.703021445802	406.030828575686	564.382006235625	990.901408316095	300.450947627731	615.804118491293	1039.849743902575	208.222137918130	552.989624924710	909.222896440036	41.776543090308	507.936257730052	1081.491005585002	98.466787664529	549.445390660489	991.269463079361	36.379173172529	584.348773776579	1199.435000407445	46.009012496686	576.610670234410	1051.110236553650	71.305920355140	356.714052630602	1109.483165158716	68.154023677123	265.143760430555	1194.998095998197	132.168807820116	274.823354524475	1314.667142187935	83.364366463898	224.431985257309	910.183496242929	1108.834624828249	215.337181143729	926.397361976861	847.465280298787	208.850746447172	1116.114999045850	1093.589828801843	783.806235410489	1358.389911500335	1026.715560820928	741.602801534563	
107	31.877142857143	855.404292554558	1010.414060466742	500.444589358256	1035.000855287654	1441.123571198095	325.174541443671	1149.527863575413	1359.808585362256	471.148436851581	1087.391188187433	1432.949483528314	653.446740206111	1054.271320697339	1494.016859412652	477.468534651468	1086.504787071422	946.077138879900	603.337061023787	1057.970002786572	961.521933144328	329.843487077336	1109.920014362984	741.693997939579	576.448530837176	1021.806870457055	635.549448391372	635.063045209588	1096.226506280137	581.549952612247	556.307439743138	1090.201481599751	494.786130494692	562.140527816525	1138.791188391989	791.716574175035	343.161421465482	1095.057437944067	663.072552714050	261.247654519227	1208.838563971949	609.590455430166	309.305008179354	1236.812482631032	535.932908379874	296.813724313619	1207.063076027994	459.720498469484	292.729010284502	1109.854131874478	346.227814435271	253.521372636163	1181.712772355797	231.682123836875	299.235805646579	1061.949982750775	405.573891804196	564.081121779445	984.427564059091	300.440795120328	615.423724155117	1033.002669991067	207.921500114179	552.800943380984	901.884083612972	41.638602414639	507.897301443770	1073.990379922896	98.311154399869	549.181866423861	983.886265126216	36.361001495602	584.305919075403	1192.044654474006	46.010645391712	576.611373848823	1072.975837754659	65.152628681126	350.858319875716	1132.984074836477	65.281844303736	260.201716625784	1215.008046601788	133.484736686625	271.438785760563	1337.832203797822	90.732234742906	222.843695149753	904.859022471886	1111.443584587008	215.105967398996	914.281752404338	849.897375045937	208.556465024761	1119.022077641623	1093.517825876920	783.860493633584	1363.188230574464	1038.749484886276	738.595140654325	
108	31.889285714286	853.939496959247	1010.601308541908	499.960111620818	1034.198451501012	1441.377438578149	325.354943213056	1148.578009588007	1359.588754370911	471.206440340515	1086.501170050638	1432.421597695332	653.633278084731	1053.509551236383	1493.903531653833	477.802759320694	1084.955345710912	945.815247559461	602.949460089165	1056.513166535952	961.550690286674	329.296859464328	1106.997811677339	741.039672514530	575.977802560860	1017.984179324433	635.436309818833	634.575941291061	1091.824127330425	580.877445175229	555.894609167429	1085.072263869280	494.167073735323	561.697553094224	1136.112706942796	790.987730331726	342.959206934590	1092.167036234974	662.402634196627	260.530585483326	1205.730731249306	609.031359620073	309.422242288636	1234.725611877368	537.390806938734	297.379180618719	1208.266581178444	461.700229566189	292.498914240671	1117.301975754139	343.824527335409	251.042027947787	1194.355104956524	232.484272666232	296.638726223937	1056.310939730381	405.143799392774	563.731042336697	978.073215307522	300.478181209356	615.047027440381	1026.215857793942	207.650590275163	552.592402100884	894.542666819886	41.543845772450	507.861835605197	1066.512789787394	98.170194484718	548.943990890566	976.513925439585	36.348025334840	584.269238952410	1184.665724624732	45.995444450800	576.600052959766	1093.245783588559	60.549607046091	345.510262930607	1154.838988338160	63.602110168957	255.840863080769	1233.457366757904	135.523889971239	268.589632483661	1359.041672058931	98.367462866443	222.017626321210	900.097210517388	1113.837174298905	214.742459883345	903.030272846658	852.280568364805	208.340611040380	1121.664183573650	1093.586411122290	783.534057148131	1366.954450814009	1050.356180055838	735.234189847944	
109	31.901428571429	852.514418328605	1010.808899973190	499.348492918973	1033.503383308453	1441.549661689344	325.254982855680	1147.662648003326	1359.387955809145	471.088800601125	1085.557637432993	1432.041255737704	653.552368794125	1052.750472862622	1493.803564187295	477.820763689444	1083.401979485692	945.563785383545	602.596835945155	1055.135572877741	961.576134042610	328.740113080759	1104.162038752516	740.393795868697	575.553787261837	1014.201044113788	635.332851123784	634.019210293342	1087.511813909428	580.227219438293	555.456078177702	1080.021124720551	493.567198712915	561.193651711658	1133.539689578970	790.243399072241	342.798002512598	1089.309795833183	661.715952902700	259.865203417015	1202.735005126282	608.454722927737	309.435251824329	1232.647174270485	538.681354287183	297.923065181811	1209.168790308720	463.582126177408	292.350672599917	1124.011688075016	341.971943753097	248.943441850409	1205.631090336296	233.780417377678	294.509178847430	1050.757101869667	404.742476072829	563.331377053871	971.816642123644	300.563395958542	614.668796470918	1019.481013354577	207.411185322864	552.363324683413	887.198752096704	41.490292121890	507.829323997151	1059.069629155503	98.059142795790	548.753478821894	969.152157081264	36.341728110748	584.238036992050	1177.298146746447	45.969109268967	576.579575051589	1111.567604231815	57.361214394314	340.985815098204	1174.585806997872	62.908330521061	252.275007121330	1250.020873828309	138.049093967605	266.335310462923	1377.926892580025	105.894811016916	221.806941314928	895.881903995623	1115.983709390531	214.268618726048	892.635657829311	854.551598107131	208.162238007133	1123.993112249400	1093.792811273049	782.854355585901	1369.728715205517	1061.448669381302	731.544485936146	
110	31.913571428571	851.146099873096	1011.019755491477	498.622132359403	1032.882715200434	1441.641958382435	324.891354789725	1146.776550209852	1359.205056652470	470.791115702650	1084.581977004158	1431.801724487463	653.214663601616	1051.988716499045	1493.715006390340	477.537932005078	1081.875630170152	945.325151131246	602.258286421960	1053.839921453595	961.595591941289	328.153896186016	1101.389055933219	739.752903572579	575.130493758604	1010.438683649797	635.243614516163	633.388925340396	1083.256848693389	579.594617699123	554.983110923177	1075.017654618539	492.992554377230	560.634418447839	1131.162827978283	789.575087102546	342.631338542316	1086.642848307885	661.067304347488	259.262126948644	1200.011585672907	607.948770489201	309.317748600196	1230.720225916737	539.832129607599	298.374746491066	1209.843314704965	465.317395173680	292.252444814714	1129.842543062548	340.614176067687	247.343087470193	1215.377589152879	235.376962603606	292.912163922733	1045.253343054141	404.368081232891	562.883643953223	965.630398276572	300.691286987448	614.283819111406	1012.785256680164	207.201320399193	552.113100340906	879.852415813218	41.472361278477	507.799357937166	1051.665760004270	97.986086932450	548.621518970529	961.799056014402	36.342286265455	584.211168019174	1169.940527851143	45.937995436685	576.553279534758	1127.599221995348	55.384739243088	337.541423344507	1191.790910196341	62.939449430836	249.668443922576	1264.396799591879	140.775880817327	264.717560103767	1394.158498039054	112.901545528923	222.059198615482	892.178038708322	1117.855475513214	213.701929540005	883.102758653532	856.652404074444	207.975189473800	1125.958175477650	1094.118419993876	781.865659551323	1371.555343759831	1071.933294052716	727.563167602977	
